<svg width="61" height="67" viewBox="0 0 61 67" fill="none" xmlns="http://www.w3.org/2000/svg">
<path d="M32.224 37.7329C32.224 40.9156 32.4293 43.6876 32.84 46.0489C33.3533 48.4102 33.8666 50.5149 34.38 52.3629C34.996 54.1082 35.5093 55.5969 35.92 56.8289C36.4333 58.0609 36.69 59.1389 36.69 60.0629C36.69 61.9109 36.0226 63.5536 34.688 64.9909C33.3533 66.3256 31.762 66.9929 29.914 66.9929C27.758 66.9929 26.0126 66.2742 24.678 64.8369C23.446 63.2969 22.83 61.5002 22.83 59.4469C22.83 58.7282 23.0353 57.8042 23.446 56.6749C23.9593 55.5456 24.4726 54.1596 24.986 52.5169C25.602 50.7716 26.1666 48.7182 26.68 46.3569C27.1933 43.8929 27.5013 41.0182 27.604 37.7329C23.3946 40.0942 20.3146 42.2502 18.364 44.2009C16.4133 46.1516 14.8733 47.8456 13.744 49.2829C12.7173 50.7202 11.7933 51.8496 10.972 52.6709C10.2533 53.3896 8.96996 53.7489 7.12196 53.7489C5.1713 53.7489 3.4773 53.0816 2.03996 51.7469C0.705297 50.3096 0.0379639 48.6156 0.0379639 46.6649C0.0379639 44.3036 0.705297 42.6609 2.03996 41.7369C3.37463 40.8129 5.1713 40.0942 7.42997 39.5809C9.7913 39.0676 12.4606 38.4516 15.438 37.7329C18.518 37.0142 21.8033 35.6796 25.294 33.7289C22.214 31.9836 19.5446 30.7516 17.286 30.0329C15.0273 29.3142 13.0766 28.8009 11.434 28.4929C9.7913 28.1849 8.35396 27.9796 7.12196 27.8769C5.99263 27.7742 4.96596 27.4149 4.04196 26.7989C2.80996 26.0802 1.88596 25.2076 1.26996 24.1809C0.653964 23.0516 0.345964 21.8709 0.345964 20.6389C0.345964 18.5856 1.06463 16.9429 2.50196 15.7109C4.04196 14.3762 5.73596 13.7089 7.58396 13.7089C8.91863 13.7089 10.202 14.2736 11.434 15.4029C12.666 16.4296 14.0006 17.7642 15.438 19.4069C16.978 20.9469 18.7233 22.6922 20.674 24.6429C22.6246 26.4909 24.986 28.1849 27.758 29.7249C27.758 23.3596 26.8853 18.1236 25.14 14.0169C24.6266 13.1956 24.1646 12.1689 23.754 10.9369C23.3433 9.60223 23.138 8.52423 23.138 7.7029C23.138 5.64956 23.754 3.95557 24.986 2.6209C26.3206 1.28623 28.0146 0.618896 30.068 0.618896C32.1213 0.618896 33.8153 1.28623 35.15 2.6209C36.4846 3.95557 37.152 5.64956 37.152 7.7029C37.152 8.52423 36.9466 9.5509 36.536 10.7829C36.1253 11.9122 35.6633 12.9902 35.15 14.0169C34.1233 16.1729 33.4046 18.5342 32.994 21.1009C32.686 23.5649 32.4806 26.4396 32.378 29.7249C36.074 27.5689 38.8973 25.5156 40.848 23.5649C42.7986 21.6142 44.3386 19.9202 45.468 18.4829C46.7 16.9429 47.7266 15.7622 48.548 14.9409C49.472 14.1196 50.8066 13.7089 52.552 13.7089C54.5026 13.7089 56.1966 14.3762 57.634 15.7109C59.0713 17.0456 59.79 18.6882 59.79 20.6389C59.79 23.1029 59.2766 24.7456 58.25 25.5669C57.2233 26.2856 55.632 26.8502 53.476 27.2609C51.4226 27.6716 48.8046 28.2876 45.622 29.1089C42.542 29.8276 38.9486 31.3676 34.842 33.7289C38.6406 35.9876 42.08 37.4762 45.16 38.1949C48.3426 38.8109 51.012 39.3242 53.168 39.7349C55.4266 40.1456 57.1206 40.8129 58.25 41.7369C59.482 42.5582 60.098 44.2522 60.098 46.8189C60.098 48.8722 59.328 50.5149 57.788 51.7469C56.3506 52.9789 54.708 53.5949 52.86 53.5949C51.628 53.5949 50.396 53.2356 49.164 52.5169C47.932 51.7982 46.546 50.2069 45.006 47.7429C44.082 46.3056 42.4906 44.6629 40.232 42.8149C37.9733 40.9669 35.304 39.2729 32.224 37.7329Z" fill="black"/>
</svg>
